<?xml version="1.0" encoding="UTF-8" standalone="no"?>
<!-- Created with Inkscape (http://www.inkscape.org/) -->

<svg
   version="1.1"
   id="svg2"
   width="950.66669"
   height="950.66669"
   viewBox="0 0 950.66669 950.66669"
   xmlns="http://www.w3.org/2000/svg"
   xmlns:svg="http://www.w3.org/2000/svg">
  <defs
     id="defs6">
    <clipPath
       clipPathUnits="userSpaceOnUse"
       id="clipPath16">
      <path
         d="M 0,712.493 H 712.493 V 0.06 L 0,0.06 Z"
         id="path14" />
    </clipPath>
  </defs>
  <g
     id="g8"
     transform="matrix(1.3333333,0,0,-1.3333333,0,950.66667)">
    <g
       id="g10">
      <g
         id="g12"
         clip-path="url(#clipPath16)">
        <path
           d="m 672.739,356.246 c 0,-174.793 -141.699,-316.492 -316.492,-316.492 -174.794,0 -316.492,141.699 -316.492,316.492 0,174.794 141.698,316.492 316.492,316.492 174.793,0 316.492,-141.698 316.492,-316.492"
           style="fill:#100f0d;fill-opacity:1;fill-rule:nonzero;stroke:none"
           id="path18" />
        <path
           d="m 356.246,695.519 c -45.805,0 -90.235,-8.969 -132.057,-26.658 C 183.79,651.773 147.506,627.309 116.345,596.148 85.184,564.987 60.72,528.703 43.632,488.304 25.943,446.482 16.974,402.052 16.974,356.247 c 0,-45.806 8.969,-90.236 26.658,-132.058 C 60.72,183.79 85.184,147.505 116.345,116.345 147.506,85.184 183.79,60.72 224.189,43.632 266.011,25.943 310.441,16.974 356.246,16.974 c 45.806,0 90.237,8.969 132.059,26.658 40.399,17.088 76.683,41.552 107.844,72.713 31.16,31.16 55.625,67.445 72.712,107.844 17.689,41.822 26.658,86.252 26.658,132.058 0,45.805 -8.969,90.235 -26.658,132.057 -17.087,40.399 -41.552,76.683 -72.712,107.844 -31.161,31.161 -67.445,55.625 -107.844,72.713 -41.822,17.689 -86.253,26.658 -132.059,26.658 z M 356.246,0 C 308.157,0 261.502,9.42 217.577,27.999 175.154,45.942 137.056,71.628 104.342,104.342 71.628,137.056 45.943,175.154 27.999,217.577 9.42,261.502 0,308.157 0,356.247 c 0,48.089 9.42,94.744 27.999,138.669 17.944,42.423 43.629,80.521 76.343,113.235 32.714,32.714 70.812,58.4 113.235,76.343 43.925,18.579 90.58,27.999 138.669,27.999 48.09,0 94.745,-9.42 138.67,-27.999 42.423,-17.943 80.521,-43.629 113.235,-76.343 32.714,-32.714 58.4,-70.812 76.344,-113.235 18.578,-43.925 27.998,-90.58 27.998,-138.669 0,-48.09 -9.42,-94.745 -27.998,-138.67 C 666.551,175.154 640.865,137.056 608.151,104.342 575.437,71.628 537.339,45.942 494.916,27.999 450.991,9.42 404.336,0 356.246,0"
           style="fill:#100f0d;fill-opacity:1;fill-rule:nonzero;stroke:none"
           id="path20" />
      </g>
    </g>
    <path
       d="m 142.828,206.544 -23.759,65.962 28.059,2.484 -33.744,93.679 -29.999,-2.655 23.759,-65.964 -28.059,-2.484 63.743,-91.022"
       style="fill:#ffffff;fill-opacity:1;fill-rule:nonzero;stroke:none"
       id="path22" />
    <path
       d="m 573.569,206.544 23.759,65.962 -28.059,2.484 33.743,93.679 29.999,-2.655 -23.759,-65.964 28.06,-2.484 -63.743,-91.022"
       style="fill:#ffffff;fill-opacity:1;fill-rule:nonzero;stroke:none"
       id="path24" />
    <path
       d="m 537.613,439.165 c -1.693,0.094 -3.815,0.255 -5.484,0.026 3.592,0.491 6.856,0.816 10.494,0.667 0.236,3.333 -3.425,5.167 -6.17,6.236 -2.357,0.919 -5.579,1.44 -8.135,0.576 -1.89,-0.774 -3.815,-1.872 -5.129,-3.366 -0.918,-0.882 -2.898,-2.466 -3.204,-3.744 0.828,0.072 1.692,-1.007 2.286,-1.566 0.738,-0.737 1.458,-1.637 2.376,-2.231 1.818,-1.35 4.319,-2.448 6.587,-2.7 2.268,-0.252 4.446,0.162 6.354,1.098 1.423,0.699 4.705,1.787 4.499,3.821 -1.485,0.096 -2.848,1.093 -4.474,1.183"
       style="fill:#ffffff;fill-opacity:1;fill-rule:nonzero;stroke:none"
       id="path26" />
    <path
       d="m 558.726,426.92 c -0.71,1.781 -2.633,6.339 -5.235,5.534 -1.284,-0.396 -2.832,-2.711 -3.692,-3.696 -0.884,-1.012 -3.069,-2.64 -3.534,-3.833 0.779,1.998 2.215,3.876 3.282,5.735 0.769,1.34 0.705,1.768 1.439,3.093 0.988,1.782 -2.042,3.174 -2.393,3.324 -2.153,0.913 -4.372,0.688 -6.235,-0.764 -2.537,-1.979 -4.126,-5.127 -4.532,-8.272 -0.305,-2.363 0.133,-4.648 0.9,-6.868 0.765,-2.215 1.055,-4.828 1.322,-7.174 -0.019,0.168 11.468,1.973 12.479,2.259 1.637,0.464 3.28,1.253 4.441,2.539 1.992,2.25 2.858,5.497 1.758,8.123"
       style="fill:#ffffff;fill-opacity:1;fill-rule:nonzero;stroke:none"
       id="path28" />
    <path
       d="m 567.214,446.598 c 3.067,-2.341 8.192,-2.116 11.779,-1.656 4.415,0.567 9.532,0.917 13.08,3.675 2.229,1.732 3.964,7.606 3.881,10.338 0.032,-1.064 -7.243,-3.757 -8.251,-4.165 -2.515,-1.015 -5.431,-1.577 -8.119,-2.03 -5.928,-1 -11.902,-0.212 -17.697,1.182 -0.015,-2.622 3.388,-5.865 5.327,-7.344"
       style="fill:#ffffff;fill-opacity:1;fill-rule:nonzero;stroke:none"
       id="path30" />
    <path
       d="m 559.076,460.331 c 1.328,-1.95 6.823,-2.873 9.285,-3.632 3.166,-0.976 7.12,-0.654 10.612,-0.575 1.943,0.044 4.359,0.71 5.857,2.012 -1.292,0.297 -2.745,-0.235 -4.092,-0.354 -5.129,-0.45 -9.642,2.682 -13.241,6.12 -1.176,1.123 -2.772,2.419 -3.594,3.826 -0.285,0.487 -1.529,4.385 -0.643,4.666 -3.85,-1.217 -6.451,-8.732 -4.184,-12.063"
       style="fill:#ffffff;fill-opacity:1;fill-rule:nonzero;stroke:none"
       id="path32" />
    <path
       d="m 580.969,481.06 c -0.96,0.394 -2.111,0.4 -3.114,0.188 -1.584,-0.334 -3.315,-1.151 -4.631,-2.084 -2.699,-1.918 -5.873,-5.388 -6.686,-8.699 -1.072,-4.366 5.534,-6.302 8.252,-8.169 -0.663,0.456 -1.44,4.235 -1.789,5.133 -0.757,1.945 -0.623,3.543 -10e-4,5.565 0.652,2.112 2.14,3.193 4.09,4.52 1.841,0.974 3.818,1.135 5.904,1.647 0.288,0.071 -1.773,1.794 -2.025,1.899"
       style="fill:#ffffff;fill-opacity:1;fill-rule:nonzero;stroke:none"
       id="path34" />
    <path
       d="m 585.7,477.942 -2.085,-0.513 c 2.463,-0.759 4.601,-2.574 6.386,-4.282 3.113,-3.656 3.759,-6.553 4.326,-10.967 6.611,6.44 0.064,17.708 -8.627,15.762"
       style="fill:#ffffff;fill-opacity:1;fill-rule:nonzero;stroke:none"
       id="path36" />
    <path
       d="m 576.059,471.666 0.593,-0.569 c 1.735,0.621 3.467,1.243 5.335,1.054 1.516,-0.082 3.52,-1.084 4.817,-1.872 1.544,-1.245 2.274,-2.626 3.114,-3.656 0.166,8.041 -9.443,10.618 -13.859,5.043"
       style="fill:#ffffff;fill-opacity:1;fill-rule:nonzero;stroke:none"
       id="path38" />
    <path
       d="m 590.737,461.289 c -0.337,1.213 -0.4,2.45 -0.294,3.674 -0.217,-0.124 -0.435,-0.249 -0.655,-0.371 -2.057,-1.141 -4.267,-2.119 -6.619,-2.062 -0.726,0.016 -7.101,1.451 -7.086,2.076 -0.147,-5.801 11.548,-5.882 14.654,-3.317"
       style="fill:#ffffff;fill-opacity:1;fill-rule:nonzero;stroke:none"
       id="path40" />
    <path
       d="m 586.317,466.193 c 0.247,-0.077 -0.64,2.072 -0.798,2.256 -0.613,0.723 -1.886,1.409 -2.811,1.596 -1.875,0.378 -3.851,-0.622 -4.785,-2.352 0.211,0.393 3.629,0.482 4.118,0.384 1.472,-0.295 2.825,-1.437 4.276,-1.884"
       style="fill:#ffffff;fill-opacity:1;fill-rule:nonzero;stroke:none"
       id="path42" />
    <path
       d="m 600.594,483.755 c -0.974,1.842 -2.056,3.331 -3.49,4.929 -1.434,1.598 -2.759,3.548 -4.412,4.443 -2.949,1.679 -7.493,1.816 -10.638,1.737 -7.567,-0.19 -21.335,-7.165 -22.432,-21.346 0.198,1.011 1.732,1.609 2.359,2.488 1.49,1.082 2.628,2.272 4.118,3.355 2.979,2.164 5.958,4.328 9.317,5.221 6.146,1.186 13.753,-0.388 18.84,-3.884 5.088,-3.493 7.575,-10.428 6.435,-16.625 -0.1,-3.824 -3.418,-11.079 -4.284,-11.929 3.838,2.961 5.268,6.324 7.343,10.599 1.328,3.059 2.304,6.226 1.873,9.827 -0.323,3.954 -2.974,7.853 -5.029,11.185"
       style="fill:#ffffff;fill-opacity:1;fill-rule:nonzero;stroke:none"
       id="path44" />
    <path
       d="m 587.178,438.026 c 3.996,-0.701 6.235,-0.187 9.872,1.736 3.683,1.947 7.692,4.949 10.05,8.847 1.571,2.599 3.281,9.393 1.008,12.021 -1.139,-1.191 -2.25,-3.546 -3.035,-4.845 -1.246,-1.542 -2.033,-2.841 -3.522,-3.924 -4.644,-5.233 -9.888,-9.441 -17.029,-10.101 -2.707,-0.251 -5.385,-0.146 -8.033,-0.301 3.03,-2.237 7.079,-2.799 10.689,-3.433"
       style="fill:#ffffff;fill-opacity:1;fill-rule:nonzero;stroke:none"
       id="path46" />
    <path
       d="m 625.406,457.994 0.108,0.352 c -1.325,1.95 -2.108,5.659 -2.865,8.205 -1.244,3.466 -1.675,7.066 -2.81,10.885 -1.064,3.303 -3.585,6.114 -6.494,7.941 -1.437,0.902 -6.612,3.556 -8.131,1.943 -1.146,-1.215 2.183,-4.51 2.862,-5.662 1.813,-3.076 2.134,-6.12 1.576,-9.57 -0.282,-1.744 -1.787,-4.892 -1.091,-6.579 0.242,-0.587 1.751,-1.469 2.252,-1.914 1.117,-0.995 1.795,-1.792 2.322,-3.198 0.89,-2.383 0.862,-4.701 0.16,-7.124 -0.776,-2.688 -2.122,-5.082 -3.647,-7.417 -1.204,-1.842 -3.122,-3.714 -4.091,-5.548 5.226,-0.175 9.637,1.706 12.424,6.102 2.25,3.546 3.525,8.934 7.425,11.584"
       style="fill:#ffffff;fill-opacity:1;fill-rule:nonzero;stroke:none"
       id="path48" />
    <path
       d="m 544.731,466.296 c 2.704,-6.229 6.381,-14.298 13.42,-16.469 1.544,3.763 -2.892,9.37 -3.784,12.727 -1.513,5.091 -1.62,9.747 -0.912,14.539 0.84,3.98 4.362,7.904 7.098,10.528 2.846,2.977 6.853,5.979 10.671,7.115 l 5.118,0.349 c -0.704,0.217 -1.3,0.786 -2.355,1.111 -1.056,0.326 -2.924,0.516 -4.087,0.49 -2.22,0.298 -4.089,0.49 -5.957,0.68 -3.276,0.625 -7.12,0.653 -10.477,-0.237 -1.625,-0.271 -3.711,-0.784 -5.092,-1.514 -1.489,-1.082 -2.031,-2.842 -2.926,-4.493 -2.6,-3.437 -3.902,-7.659 -4.04,-11.856 -0.246,-4.549 1.836,-9.044 3.323,-12.97"
       style="fill:#ffffff;fill-opacity:1;fill-rule:nonzero;stroke:none"
       id="path50" />
    <path
       d="m 577.095,499.092 3.302,-1.789 c 4.169,1.027 7.689,-0.058 11.912,-1.36 2.463,-0.76 5.17,-1.979 7.416,-3.443 0.948,-0.677 1.893,-1.355 2.842,-2.032 -1.001,3.006 -2.84,7.04 -5.572,9.426 -2.735,2.383 -6.144,3.819 -9.771,4.552 -2.924,0.517 -5.903,-1.648 -8.314,-3.216 -0.569,-0.596 -2.41,-1.57 -1.815,-2.138"
       style="fill:#ffffff;fill-opacity:1;fill-rule:nonzero;stroke:none"
       id="path52" />
    <path
       d="m 579.006,436.718 c 0.252,1.618 -5.437,2.745 -6.344,3.005 -6.293,1.806 -12.894,3.615 -18.314,7.435 -3.644,2.569 -8.227,7.378 -9.884,11.537 -0.886,2.224 -1.645,8.939 -3.925,2.993 -1.233,-3.219 -2.751,-8.862 -1.367,-12.175 3.167,-0.976 5.71,-5.228 8.09,-7.504 2.977,-2.843 6.657,-5.906 10.989,-6.856 3.979,-0.841 8.392,-0.275 12.453,0.4 1.138,0.189 8.094,-0.181 8.302,1.165"
       style="fill:#ffffff;fill-opacity:1;fill-rule:nonzero;stroke:none"
       id="path54" />
    <path
       d="m 610.722,437.859 -3.628,0.732 c -2.545,-0.756 -5.064,-2.676 -7.718,-3.785 -5.199,-1.866 -10.886,-2.81 -16.356,-3.051 -5.225,-0.701 -10.233,-0.698 -15.376,0.117 -2.219,0.3 -3.627,0.734 -4.037,-1.838 -0.19,-1.868 1.38,-4.28 2.814,-5.877 2.137,-1.816 5.874,-2.195 8.445,-2.603 2.573,-0.409 4.792,-0.707 7.473,-0.763 5.36,-0.111 10.695,0.942 16.054,0.83 1.978,0.162 6.66,-0.897 7.555,0.754 0.218,0.704 0.055,2.68 0.029,3.844 0.299,2.22 1.41,4.576 2.414,6.579 0.893,1.65 2.141,3.193 2.331,5.061"
       style="fill:#ffffff;fill-opacity:1;fill-rule:nonzero;stroke:none"
       id="path56" />
    <path
       d="m 537.351,462.352 c -3.718,-0.873 -7.829,-1.707 -11.427,-0.387 -2.541,0.932 -5.118,1.718 -7.835,1.408 1.2,-0.506 2.499,-0.894 3.726,-1.393 0.56,-0.229 1.104,-0.498 1.635,-0.791 1.97,-1.087 3.782,-2.521 5.765,-3.567 0.831,-0.439 5.28,-2.129 5.349,-2.946 -0.285,3.384 0.863,5.003 2.787,7.676"
       style="fill:#ffffff;fill-opacity:1;fill-rule:nonzero;stroke:none"
       id="path58" />
    <path
       d="m 628.633,427.826 c -0.349,1.986 -0.56,3.99 -1.329,5.939 -1.077,2.733 -4.557,5.942 -7.455,6.596 -2.172,0.49 -6.188,-0.097 -7.165,-2.404 -1.102,-2.6 1.872,-2.489 3.431,-3.194 2.027,-0.918 0.245,-1.668 -2.803,-1.172 -1.879,0.306 -2.817,-0.282 -2.909,-2.19 -0.073,-1.5 -0.173,-3.263 0.864,-4.46 1.912,-2.209 5.984,-2.916 8.75,-3.094 3.199,-0.207 6.207,1.453 9.403,0.818 -0.373,1.042 -0.6,2.099 -0.787,3.161"
       style="fill:#ffffff;fill-opacity:1;fill-rule:nonzero;stroke:none"
       id="path60" />
    <path
       d="m 178.06,439.165 c 1.693,0.094 3.816,0.255 5.485,0.026 -3.593,0.491 -6.857,0.816 -10.495,0.667 -0.236,3.333 3.425,5.167 6.17,6.236 2.358,0.919 5.579,1.44 8.135,0.576 1.89,-0.774 3.816,-1.872 5.13,-3.366 0.918,-0.882 2.898,-2.466 3.204,-3.744 -0.829,0.072 -1.693,-1.007 -2.286,-1.566 -0.738,-0.737 -1.459,-1.637 -2.376,-2.231 -1.818,-1.35 -4.32,-2.448 -6.588,-2.7 -2.267,-0.252 -4.445,0.162 -6.353,1.098 -1.424,0.699 -4.705,1.787 -4.499,3.821 1.484,0.096 2.847,1.093 4.473,1.183"
       style="fill:#ffffff;fill-opacity:1;fill-rule:nonzero;stroke:none"
       id="path62" />
    <path
       d="m 156.947,426.92 c 0.71,1.781 2.634,6.339 5.236,5.534 1.283,-0.396 2.831,-2.711 3.691,-3.696 0.884,-1.012 3.069,-2.64 3.535,-3.833 -0.78,1.998 -2.216,3.876 -3.282,5.735 -0.769,1.34 -0.705,1.768 -1.44,3.093 -0.987,1.782 2.043,3.174 2.394,3.324 2.152,0.913 4.372,0.688 6.234,-0.764 2.537,-1.979 4.126,-5.127 4.533,-8.272 0.305,-2.363 -0.133,-4.648 -0.901,-6.868 -0.765,-2.215 -1.055,-4.828 -1.321,-7.174 0.019,0.168 -11.468,1.973 -12.48,2.259 -1.637,0.464 -3.28,1.253 -4.441,2.539 -1.992,2.25 -2.858,5.497 -1.758,8.123"
       style="fill:#ffffff;fill-opacity:1;fill-rule:nonzero;stroke:none"
       id="path64" />
    <path
       d="m 148.459,446.598 c -3.067,-2.341 -8.192,-2.116 -11.779,-1.656 -4.414,0.567 -9.532,0.917 -13.08,3.675 -2.229,1.732 -3.964,7.606 -3.88,10.338 -0.033,-1.064 7.243,-3.757 8.251,-4.165 2.515,-1.015 5.431,-1.577 8.119,-2.03 5.928,-1 11.902,-0.212 17.697,1.182 0.014,-2.622 -3.388,-5.865 -5.328,-7.344"
       style="fill:#ffffff;fill-opacity:1;fill-rule:nonzero;stroke:none"
       id="path66" />
    <path
       d="m 156.597,460.331 c -1.327,-1.95 -6.822,-2.873 -9.285,-3.632 -3.166,-0.976 -7.12,-0.654 -10.612,-0.575 -1.942,0.044 -4.359,0.71 -5.857,2.012 1.293,0.297 2.745,-0.235 4.093,-0.354 5.129,-0.45 9.641,2.682 13.24,6.12 1.176,1.123 2.773,2.419 3.595,3.826 0.285,0.487 1.529,4.385 0.642,4.666 3.85,-1.217 6.451,-8.732 4.184,-12.063"
       style="fill:#ffffff;fill-opacity:1;fill-rule:nonzero;stroke:none"
       id="path68" />
    <path
       d="m 134.705,481.06 c 0.959,0.394 2.111,0.4 3.113,0.188 1.585,-0.334 3.316,-1.151 4.632,-2.084 2.698,-1.918 5.872,-5.388 6.686,-8.699 1.072,-4.366 -5.534,-6.302 -8.252,-8.169 0.663,0.456 1.439,4.235 1.788,5.133 0.757,1.945 0.624,3.543 0.002,5.565 -0.652,2.112 -2.141,3.193 -4.09,4.52 -1.842,0.974 -3.818,1.135 -5.905,1.647 -0.288,0.071 1.773,1.794 2.026,1.899"
       style="fill:#ffffff;fill-opacity:1;fill-rule:nonzero;stroke:none"
       id="path70" />
    <path
       d="m 129.973,477.942 2.086,-0.513 c -2.464,-0.759 -4.601,-2.574 -6.387,-4.282 -3.113,-3.656 -3.759,-6.553 -4.326,-10.967 -6.611,6.44 -0.064,17.708 8.627,15.762"
       style="fill:#ffffff;fill-opacity:1;fill-rule:nonzero;stroke:none"
       id="path72" />
    <path
       d="m 139.614,471.666 -0.593,-0.569 c -1.735,0.621 -3.467,1.243 -5.335,1.054 -1.516,-0.082 -3.519,-1.084 -4.817,-1.872 -1.544,-1.245 -2.274,-2.626 -3.114,-3.656 -0.166,8.041 9.444,10.618 13.859,5.043"
       style="fill:#ffffff;fill-opacity:1;fill-rule:nonzero;stroke:none"
       id="path74" />
    <path
       d="m 124.937,461.289 c 0.337,1.213 0.4,2.45 0.293,3.674 0.218,-0.124 0.435,-0.249 0.656,-0.371 2.056,-1.141 4.267,-2.119 6.619,-2.062 0.726,0.016 7.1,1.451 7.085,2.076 0.148,-5.801 -11.548,-5.882 -14.653,-3.317"
       style="fill:#ffffff;fill-opacity:1;fill-rule:nonzero;stroke:none"
       id="path76" />
    <path
       d="m 129.357,466.193 c -0.248,-0.077 0.64,2.072 0.798,2.256 0.612,0.723 1.885,1.409 2.811,1.596 1.874,0.378 3.851,-0.622 4.785,-2.352 -0.212,0.393 -3.63,0.482 -4.118,0.384 -1.473,-0.295 -2.825,-1.437 -4.276,-1.884"
       style="fill:#ffffff;fill-opacity:1;fill-rule:nonzero;stroke:none"
       id="path78" />
    <path
       d="m 115.08,483.755 c 0.974,1.842 2.055,3.331 3.489,4.929 1.434,1.598 2.76,3.548 4.412,4.443 2.95,1.679 7.493,1.816 10.639,1.737 7.566,-0.19 21.335,-7.165 22.431,-21.346 -0.197,1.011 -1.732,1.609 -2.359,2.488 -1.49,1.082 -2.628,2.272 -4.118,3.355 -2.979,2.164 -5.958,4.328 -9.317,5.221 -6.146,1.186 -13.753,-0.388 -18.84,-3.884 -5.088,-3.493 -7.575,-10.428 -6.434,-16.625 0.099,-3.824 3.417,-11.079 4.284,-11.929 -3.839,2.961 -5.268,6.324 -7.343,10.599 -1.328,3.059 -2.304,6.226 -1.874,9.827 0.324,3.954 2.975,7.853 5.03,11.185"
       style="fill:#ffffff;fill-opacity:1;fill-rule:nonzero;stroke:none"
       id="path80" />
    <path
       d="m 128.495,438.026 c -3.995,-0.701 -6.234,-0.187 -9.872,1.736 -3.683,1.947 -7.692,4.949 -10.049,8.847 -1.571,2.599 -3.282,9.393 -1.008,12.021 1.138,-1.191 2.25,-3.546 3.034,-4.845 1.247,-1.542 2.033,-2.841 3.522,-3.924 4.645,-5.233 9.888,-9.441 17.03,-10.101 2.707,-0.251 5.385,-0.146 8.033,-0.301 -3.031,-2.237 -7.08,-2.799 -10.69,-3.433"
       style="fill:#ffffff;fill-opacity:1;fill-rule:nonzero;stroke:none"
       id="path82" />
    <path
       d="m 90.268,457.994 -0.109,0.352 c 1.325,1.95 2.108,5.659 2.865,8.205 1.244,3.466 1.675,7.066 2.81,10.885 1.064,3.303 3.585,6.114 6.495,7.941 1.437,0.902 6.612,3.556 8.131,1.943 1.145,-1.215 -2.184,-4.51 -2.863,-5.662 -1.812,-3.076 -2.134,-6.12 -1.575,-9.57 0.281,-1.744 1.786,-4.892 1.091,-6.579 -0.243,-0.587 -1.751,-1.469 -2.253,-1.914 -1.117,-0.995 -1.795,-1.792 -2.321,-3.198 -0.891,-2.383 -0.863,-4.701 -0.161,-7.124 0.777,-2.688 2.123,-5.082 3.648,-7.417 1.204,-1.842 3.121,-3.714 4.09,-5.548 -5.226,-0.175 -9.637,1.706 -12.424,6.102 -2.25,3.546 -3.524,8.934 -7.424,11.584"
       style="fill:#ffffff;fill-opacity:1;fill-rule:nonzero;stroke:none"
       id="path84" />
    <path
       d="m 170.943,466.296 c -2.704,-6.229 -6.382,-14.298 -13.42,-16.469 -1.545,3.763 2.892,9.37 3.784,12.727 1.512,5.091 1.619,9.747 0.912,14.539 -0.841,3.98 -4.363,7.904 -7.099,10.528 -2.845,2.977 -6.852,5.979 -10.671,7.115 l -5.117,0.349 c 0.704,0.217 1.3,0.786 2.354,1.111 1.057,0.326 2.925,0.516 4.088,0.49 2.22,0.298 4.089,0.49 5.957,0.68 3.276,0.625 7.12,0.653 10.477,-0.237 1.625,-0.271 3.71,-0.784 5.091,-1.514 1.489,-1.082 2.032,-2.842 2.927,-4.493 2.6,-3.437 3.902,-7.659 4.04,-11.856 0.245,-4.549 -1.837,-9.044 -3.323,-12.97"
       style="fill:#ffffff;fill-opacity:1;fill-rule:nonzero;stroke:none"
       id="path86" />
    <path
       d="m 138.578,499.092 -3.302,-1.789 c -4.169,1.027 -7.688,-0.058 -11.912,-1.36 -2.462,-0.76 -5.169,-1.979 -7.416,-3.443 -0.947,-0.677 -1.893,-1.355 -2.841,-2.032 1.001,3.006 2.839,7.04 5.572,9.426 2.734,2.383 6.144,3.819 9.771,4.552 2.923,0.517 5.903,-1.648 8.314,-3.216 0.569,-0.596 2.41,-1.57 1.814,-2.138"
       style="fill:#ffffff;fill-opacity:1;fill-rule:nonzero;stroke:none"
       id="path88" />
    <path
       d="m 136.667,436.718 c -0.251,1.618 5.437,2.745 6.345,3.005 6.292,1.806 12.893,3.615 18.313,7.435 3.644,2.569 8.228,7.378 9.885,11.537 0.886,2.224 1.644,8.939 3.924,2.993 1.234,-3.219 2.751,-8.862 1.367,-12.175 -3.167,-0.976 -5.709,-5.228 -8.09,-7.504 -2.976,-2.843 -6.657,-5.906 -10.988,-6.856 -3.98,-0.841 -8.392,-0.275 -12.454,0.4 -1.137,0.189 -8.093,-0.181 -8.302,1.165"
       style="fill:#ffffff;fill-opacity:1;fill-rule:nonzero;stroke:none"
       id="path90" />
    <path
       d="m 104.951,437.859 3.628,0.732 c 2.546,-0.756 5.064,-2.676 7.719,-3.785 5.199,-1.866 10.885,-2.81 16.355,-3.051 5.225,-0.701 10.233,-0.698 15.376,0.117 2.22,0.3 3.628,0.734 4.037,-1.838 0.19,-1.868 -1.379,-4.28 -2.814,-5.877 -2.137,-1.816 -5.873,-2.195 -8.445,-2.603 -2.572,-0.409 -4.792,-0.707 -7.473,-0.763 -5.36,-0.111 -10.694,0.942 -16.053,0.83 -1.978,0.162 -6.661,-0.897 -7.556,0.754 -0.218,0.704 -0.054,2.68 -0.029,3.844 -0.298,2.22 -1.41,4.576 -2.413,6.579 -0.893,1.65 -2.141,3.193 -2.332,5.061"
       style="fill:#ffffff;fill-opacity:1;fill-rule:nonzero;stroke:none"
       id="path92" />
    <path
       d="m 178.323,462.352 c 3.717,-0.873 7.829,-1.707 11.426,-0.387 2.541,0.932 5.118,1.718 7.836,1.408 -1.201,-0.506 -2.5,-0.894 -3.726,-1.393 -0.561,-0.229 -1.105,-0.498 -1.635,-0.791 -1.97,-1.087 -3.783,-2.521 -5.765,-3.567 -0.832,-0.439 -5.28,-2.129 -5.349,-2.946 0.284,3.384 -0.863,5.003 -2.787,7.676"
       style="fill:#ffffff;fill-opacity:1;fill-rule:nonzero;stroke:none"
       id="path94" />
    <path
       d="m 87.04,427.826 c 0.349,1.986 0.56,3.99 1.329,5.939 1.078,2.733 4.557,5.942 7.455,6.596 2.173,0.49 6.189,-0.097 7.166,-2.404 1.102,-2.6 -1.872,-2.489 -3.431,-3.194 -2.027,-0.918 -0.245,-1.668 2.803,-1.172 1.879,0.306 2.816,-0.282 2.909,-2.19 0.072,-1.5 0.172,-3.263 -0.865,-4.46 -1.912,-2.209 -5.983,-2.916 -8.75,-3.094 -3.199,-0.207 -6.207,1.453 -9.403,0.818 0.373,1.042 0.6,2.099 0.787,3.161"
       style="fill:#ffffff;fill-opacity:1;fill-rule:nonzero;stroke:none"
       id="path96" />
    <path
       d="m 223.038,278.706 15.939,-17.008 -1.561,-7.731 68.799,26.539 -19.9,12.273 -63.277,-14.073"
       style="fill:#100f0d;fill-opacity:1;fill-rule:nonzero;stroke:none"
       id="path98" />
    <path
       d="m 285.269,300.956 0.45,-0.912 c 0.631,-1.28 0.062,-2.953 -1.218,-3.584 -1.28,-0.63 -2.952,-0.062 -3.584,1.218 l -33.672,68.338 c -0.791,1.202 -0.222,2.874 1.218,3.584 0.49,0.241 1.037,0.304 1.561,0.222 -0.256,1.318 -0.433,2.642 -0.517,3.972 -0.942,-0.021 -1.891,-0.236 -2.779,-0.673 -3.201,-1.577 -4.581,-5.639 -3.004,-8.84 l 33.673,-68.338 c 1.495,-3.439 5.557,-4.819 8.918,-3.164 2.373,1.17 3.672,3.5 3.68,5.895 -1.755,-0.032 -3.68,0.856 -4.726,2.282"
       style="fill:#ffffff;fill-opacity:1;fill-rule:nonzero;stroke:none"
       id="path100" />
    <path
       d="m 268.173,289.719 c -0.135,-0.842 -0.65,-1.624 -1.437,-2.012 -1.28,-0.631 -2.952,-0.062 -3.583,1.218 l -33.673,68.338 c -0.63,1.28 -0.062,2.953 1.218,3.584 0.246,0.121 0.507,0.185 0.771,0.221 -0.245,0.619 -0.49,1.239 -0.752,1.866 -0.285,0.682 -0.417,1.32 -0.434,1.914 -0.448,-0.112 -0.891,-0.269 -1.32,-0.48 -3.201,-1.578 -4.581,-5.639 -3.004,-8.84 l 33.673,-68.338 c 1.656,-3.361 5.717,-4.741 8.918,-3.164 2.269,1.118 3.558,3.297 3.673,5.579 -1.264,-0.497 -2.693,-0.539 -4.05,0.114"
       style="fill:#ffffff;fill-opacity:1;fill-rule:nonzero;stroke:none"
       id="path102" />
    <path
       d="m 250.548,282.002 c 0.232,-1.157 -0.333,-2.435 -1.416,-2.969 -1.281,-0.631 -2.953,-0.063 -3.584,1.218 l -33.672,68.338 c -0.631,1.28 -0.063,2.952 1.217,3.583 0.547,0.269 1.161,0.309 1.738,0.18 -0.448,1.446 -0.218,2.812 0.429,3.946 -1.298,0.193 -2.658,0.008 -3.901,-0.605 -3.361,-1.656 -4.581,-5.638 -3.004,-8.839 l 33.672,-68.338 c 1.656,-3.361 5.718,-4.741 8.918,-3.164 2.757,1.358 4.07,4.281 3.584,7.055 -1.273,-0.586 -2.714,-0.752 -3.981,-0.405"
       style="fill:#ffffff;fill-opacity:1;fill-rule:nonzero;stroke:none"
       id="path104" />
    <path
       d="m 186.354,309.56 c -4.81,9.763 -1.071,21.55 8.295,26.762 l 3.154,-6.402 c -6.005,-3.556 -8.282,-11.043 -5.207,-17.285 l 13.564,-27.527 c 3.075,-6.241 10.56,-8.918 16.878,-6.402 l 3.154,-6.401 c -9.839,-4.252 -21.464,-0.035 -26.274,9.728 z m 124.041,-19.634 -72.979,-35.959 c -0.471,1.359 -0.223,2.874 0.9,3.825 1.044,1.111 1.292,2.625 0.661,3.906 l -44.791,90.904 c -0.631,1.28 -2.062,2.166 -3.5,1.855 -1.279,-0.232 -2.392,0.413 -3.185,1.216 0.719,0.155 1.438,0.31 2.078,0.626 1.12,0.552 1.074,5.345 1.957,6.378 l 0.801,0.394 c 2.472,-0.174 5.028,0.29 7.269,1.394 2.24,1.104 4.165,2.848 5.534,4.914 l 53.934,26.576 c 0.471,-1.36 1.232,-6.796 0.11,-7.747 -0.242,-0.317 -0.483,-0.635 -0.645,-1.113 l -58.256,-28.704 c -0.96,-0.473 -1.526,-1.747 -0.974,-2.867 0.473,-0.96 1.747,-1.526 2.867,-0.974 l 57.135,28.152 43.135,-87.543 -49.293,-24.288 c -0.96,-0.473 -1.447,-1.907 -0.974,-2.867 0.473,-0.96 1.747,-1.526 2.867,-0.974 l 50.253,24.761 c 0.478,-0.162 0.877,-0.165 1.436,-0.088 1.438,0.311 2.79,-0.415 3.581,-1.617 z m -90.036,-5.379 c -2.957,-0.861 -6.381,0.436 -7.879,3.477 l -13.563,27.527 c -1.499,3.041 -0.601,6.467 2.043,8.366 z m -39.766,22.174 13.563,-27.527 c 6.388,-12.964 22.074,-18.561 35.274,-12.653 l 2.76,-5.602 c -1.932,-2.941 -2.113,-6.61 -0.536,-9.811 l 0.316,-0.64 c 1.34,-2.721 4.685,-3.857 7.406,-2.517 l 74.739,36.827 c 2.721,1.34 3.858,4.685 2.517,7.406 l -0.315,0.64 c -1.578,3.201 -4.757,5.214 -8.107,5.553 L 265.39,385.3 c 1.933,2.941 2.114,6.61 0.536,9.811 l -0.315,0.64 c -0.552,1.12 -1.584,2.004 -2.619,2.489 0.251,1.914 0.024,3.989 -0.844,5.75 -1.656,3.361 -4.996,5.295 -8.586,5.316 -3.95,6.805 -12.553,9.329 -19.595,5.859 -1.44,-0.709 -2.802,-1.579 -3.845,-2.69 -3.983,1.22 -8.214,0.926 -12.055,-0.967 -3.36,-1.656 -6.169,-4.432 -7.705,-7.775 -3.27,0.179 -6.473,-1.797 -7.768,-4.822 -1.517,-0.15 -2.876,-0.621 -4.156,-1.252 -4.001,-1.972 -6.497,-5.787 -6.762,-10.094 -1.278,-0.232 -2.637,-0.703 -3.757,-1.255 -5.762,-2.839 -8.909,-8.964 -7.828,-15.194 -3.287,-2.614 -4.349,-6.917 -2.457,-10.758 0.631,-1.28 1.503,-2.243 2.535,-3.127 -0.086,-1.036 0.067,-2.154 0.541,-3.115 l 0.315,-0.64 c 1.577,-3.201 4.757,-5.214 8.106,-5.553 l 2.76,-5.601 c -12.726,-6.868 -17.846,-22.716 -11.298,-35.601"
       style="fill:#ffffff;fill-opacity:1;fill-rule:nonzero;stroke:none"
       id="path106" />
    <path
       d="m 491.537,275.006 -17.024,-15.923 1.049,-7.817 -66.904,31.009 20.665,10.938 62.214,-18.207"
       style="fill:#100f0d;fill-opacity:1;fill-rule:nonzero;stroke:none"
       id="path108" />
    <path
       d="m 427.224,299.844 -0.45,-0.912 c -0.631,-1.28 -0.062,-2.952 1.218,-3.583 1.28,-0.631 2.953,-0.063 3.584,1.217 l 33.672,68.339 c 0.791,1.201 0.222,2.873 -1.218,3.583 -0.49,0.242 -1.037,0.305 -1.561,0.222 0.257,1.318 0.433,2.643 0.517,3.972 0.943,-0.021 1.891,-0.235 2.779,-0.673 3.201,-1.577 4.581,-5.638 3.004,-8.839 l -33.672,-68.338 c -1.496,-3.44 -5.558,-4.82 -8.919,-3.164 -2.373,1.169 -3.672,3.499 -3.68,5.894 1.755,-0.032 3.68,0.856 4.726,2.282"
       style="fill:#ffffff;fill-opacity:1;fill-rule:nonzero;stroke:none"
       id="path110" />
    <path
       d="m 444.32,288.607 c 0.135,-0.842 0.65,-1.624 1.437,-2.012 1.28,-0.63 2.952,-0.062 3.583,1.218 l 33.673,68.338 c 0.631,1.281 0.062,2.953 -1.218,3.584 -0.245,0.121 -0.507,0.185 -0.771,0.221 0.245,0.619 0.49,1.239 0.752,1.866 0.285,0.682 0.417,1.32 0.434,1.914 0.448,-0.112 0.891,-0.269 1.32,-0.48 3.201,-1.577 4.581,-5.639 3.004,-8.84 l -33.673,-68.338 c -1.656,-3.361 -5.717,-4.741 -8.918,-3.164 -2.269,1.118 -3.557,3.297 -3.673,5.58 1.264,-0.498 2.694,-0.54 4.05,0.113"
       style="fill:#ffffff;fill-opacity:1;fill-rule:nonzero;stroke:none"
       id="path112" />
    <path
       d="m 461.945,280.891 c -0.231,-1.157 0.333,-2.436 1.416,-2.97 1.281,-0.631 2.953,-0.063 3.584,1.218 l 33.672,68.338 c 0.631,1.28 0.063,2.953 -1.217,3.583 -0.546,0.269 -1.161,0.309 -1.738,0.18 0.448,1.446 0.218,2.812 -0.428,3.947 1.297,0.193 2.657,0.007 3.9,-0.606 3.361,-1.656 4.581,-5.638 3.004,-8.839 l -33.672,-68.338 c -1.656,-3.361 -5.718,-4.741 -8.918,-3.164 -2.757,1.358 -4.07,4.281 -3.584,7.055 1.273,-0.586 2.714,-0.752 3.981,-0.404"
       style="fill:#ffffff;fill-opacity:1;fill-rule:nonzero;stroke:none"
       id="path114" />
    <path
       d="m 512.575,280.921 c -4.81,-9.763 -16.435,-13.98 -26.274,-9.728 l 3.154,6.401 c 6.318,-2.516 13.803,0.161 16.878,6.402 l 13.564,27.528 c 3.076,6.241 0.798,13.728 -5.207,17.284 l 3.154,6.402 c 9.366,-5.212 13.105,-16.999 8.295,-26.762 z m -110.398,8.053 c 0.791,1.202 2.143,1.928 3.581,1.617 0.559,-0.076 0.958,-0.074 1.436,0.088 l 50.253,-24.761 c 1.12,-0.552 2.394,0.014 2.867,0.974 0.473,0.96 -0.014,2.394 -0.974,2.867 l -49.293,24.288 43.135,87.543 57.135,-28.152 c 1.12,-0.552 2.394,0.014 2.867,0.974 0.552,1.121 -0.014,2.394 -0.974,2.867 l -58.256,28.704 c -0.162,0.478 -0.781,0.759 -1.022,1.077 -0.457,1.599 0.491,4.883 0.961,6.242 l 53.935,-26.575 c 1.368,-2.067 3.293,-3.811 5.534,-4.915 2.24,-1.104 4.796,-1.568 7.269,-1.394 l 0.8,-0.394 c 0.884,-1.032 0.363,-4.285 1.483,-4.837 0.64,-0.315 1.359,-0.471 2.078,-0.626 -0.793,-0.803 -1.906,-1.447 -3.184,-1.216 -1.438,0.311 -2.87,-0.575 -3.5,-1.855 l -44.792,-90.904 c -0.631,-1.281 -0.382,-2.795 0.661,-3.906 1.123,-0.951 1.371,-2.466 0.9,-3.825 l -72.979,35.959 z m 109.356,33.831 c 2.644,-1.899 3.542,-5.325 2.044,-8.366 l -13.564,-27.527 c -1.498,-3.041 -4.922,-4.338 -7.879,-3.477 z m 9.069,18.405 2.76,5.602 c 3.349,0.338 6.529,2.352 8.106,5.552 l 0.315,0.641 c 0.474,0.96 0.627,2.078 0.541,3.115 1.032,0.883 1.904,1.846 2.535,3.126 1.893,3.841 0.83,8.144 -2.457,10.758 1.081,6.23 -2.066,12.355 -7.828,15.194 -1.12,0.552 -2.479,1.023 -3.757,1.255 -0.265,4.307 -2.761,8.123 -6.762,10.094 -1.28,0.631 -2.639,1.102 -4.156,1.253 -1.294,3.024 -4.498,5 -7.768,4.822 -1.536,3.342 -4.344,6.118 -7.705,7.774 -3.841,1.893 -8.072,2.187 -12.054,0.967 -1.044,1.111 -2.406,1.981 -3.846,2.691 -7.042,3.469 -15.645,0.946 -19.595,-5.86 -3.59,-0.021 -6.93,-1.955 -8.586,-5.316 -0.867,-1.76 -1.095,-3.836 -0.844,-5.75 -1.035,-0.485 -2.067,-1.368 -2.619,-2.489 l -0.315,-0.64 c -1.577,-3.201 -1.396,-6.87 0.536,-9.811 l -42.82,-86.903 c -3.349,-0.339 -6.529,-2.352 -8.107,-5.553 l -0.315,-0.64 c -1.341,-2.721 -0.204,-6.065 2.517,-7.406 l 74.739,-36.827 c 2.721,-1.34 6.066,-0.204 7.406,2.517 l 0.316,0.64 c 1.577,3.201 1.396,6.87 -0.536,9.811 l 2.76,5.602 c 13.2,-5.907 28.886,-0.31 35.274,12.653 l 13.563,27.527 c 6.548,12.885 1.428,28.734 -11.298,35.601"
       style="fill:#ffffff;fill-opacity:1;fill-rule:nonzero;stroke:none"
       id="path116" />
    <path
       d="m 417.051,412.384 c -16.234,16.217 -37.794,25.15 -60.746,25.15 -22.951,0 -44.511,-8.933 -60.745,-25.15 -16.235,-16.218 -25.151,-37.795 -25.151,-60.746 0,-22.951 8.933,-44.511 25.151,-60.746 16.217,-16.234 37.794,-25.15 60.745,-25.15 22.952,0 44.512,8.933 60.746,25.15 16.234,16.217 25.15,37.795 25.15,60.746 0,22.951 -8.933,44.511 -25.15,60.746"
       style="fill:#100f0d;fill-opacity:1;fill-rule:nonzero;stroke:none"
       id="path118" />
    <path
       d="m 417.051,412.384 c -16.234,16.217 -37.794,25.15 -60.746,25.15 -22.951,0 -44.511,-8.933 -60.745,-25.15 -16.235,-16.218 -25.151,-37.795 -25.151,-60.746 0,-22.951 8.933,-44.511 25.151,-60.746 16.217,-16.234 37.794,-25.15 60.745,-25.15 22.952,0 44.512,8.933 60.746,25.15 16.234,16.217 25.15,37.795 25.15,60.746 0,22.951 -8.933,44.511 -25.15,60.746 z"
       style="fill:none;stroke:#ffffff;stroke-width:3;stroke-linecap:butt;stroke-linejoin:miter;stroke-miterlimit:10;stroke-dasharray:none;stroke-opacity:1"
       id="path120" />
    <path
       d="m 415.848,402.025 -2.319,-28.638 -29.136,-9.466 -25.82,18.76 v 30.321 l 25.872,11.424 c 12.266,-4.758 23.037,-12.523 31.403,-22.401"
       style="fill:#ffffff;fill-opacity:1;fill-rule:nonzero;stroke:none"
       id="path122" />
    <path
       d="m 375.237,275.912 c -6.065,-1.512 -12.404,-2.319 -18.932,-2.319 -6.356,0 -12.541,0.773 -18.45,2.216 l -15.496,25.442 18.004,24.79 h 32.091 l 17.66,-24.515 -14.877,-25.614"
       style="fill:#ffffff;fill-opacity:1;fill-rule:nonzero;stroke:none"
       id="path124" />
    <path
       d="m 327.667,424.237 26.164,-10.926 -0.12,-30.75 -25.013,-18.159 -0.79,-0.584 -28.689,9.449 -2.886,28.242 c 8.297,9.981 19.069,17.884 31.334,22.728"
       style="fill:#ffffff;fill-opacity:1;fill-rule:nonzero;stroke:none"
       id="path126" />
    <path
       d="m 278.415,346.793 18.88,22.007 29.136,-9.466 9.912,-30.527 -17.849,-24.378 -28.552,6.151 c -6.597,10.651 -10.72,23.003 -11.527,36.213"
       style="fill:#ffffff;fill-opacity:1;fill-rule:nonzero;stroke:none"
       id="path128" />
    <path
       d="m 394.151,304.189 -18.004,24.79 2.233,6.888 7.68,23.639 28.758,9.208 19.378,-21.663 c -0.756,-13.142 -4.793,-25.425 -11.287,-36.042 l -28.758,-6.82"
       style="fill:#ffffff;fill-opacity:1;fill-rule:nonzero;stroke:none"
       id="path130" />
    <path
       d="m 427.653,406.704 c 0,0 -41.967,6.561 -71.348,6.561 -29.381,0 -73.063,-6.561 -73.063,-6.561 v 47.322 c 57.789,0.141 131.54,0.517 144.411,0 v -47.322"
       style="fill:#100f0d;fill-opacity:1;fill-rule:nonzero;stroke:none"
       id="path132" />
    <path
       d="m 356.785,445.623 c -2.109,-4.428 -4.097,-8.6 -6.204,-13.023 h 12.277 c -2.052,4.401 -6.073,13.023 -6.073,13.023 z m -23.683,-13.798 c -2.334,4.31 -4.505,8.32 -6.787,12.532 -1.902,-4.629 -3.674,-8.942 -5.569,-13.551 4.217,0.347 8.124,0.669 12.356,1.019 m 80.181,10.236 c -2.527,-4.125 -4.862,-7.933 -7.343,-11.984 4.253,-0.7 8.163,-1.345 12.318,-2.03 -1.704,4.8 -3.274,9.223 -4.975,14.014 m -20.803,-11.31 c -1.963,4.755 -3.736,9.05 -5.605,13.572 -2.299,-4.254 -4.451,-8.235 -6.778,-12.538 4.201,-0.351 8.094,-0.675 12.383,-1.034 m -85.104,-0.696 c -2.519,4.112 -4.87,7.948 -7.35,11.998 -1.68,-4.731 -3.257,-9.173 -4.97,-13.998 4.208,0.684 8.115,1.318 12.32,2 m -16.55,-5.797 c -1.574,9.161 -2.877,18.094 -4.677,26.839 -1.785,8.677 -4.074,17.163 -6.112,25.603 -3.71,-0.291 -5.434,0.766 -5.96,3.38 -0.379,1.884 0.421,3.999 1.939,5.131 1.819,1.355 4.299,0.975 5.558,-0.85 1.21,-1.756 1.128,-3.568 -0.161,-6.09 10.665,-14.653 18.803,-23.489 30.791,-40.376 1.195,10.78 3.096,36.087 3.77,46.864 -0.48,0.238 -0.985,0.478 -1.482,0.735 -1.712,0.89 -2.811,2.342 -2.816,4.479 -0.003,2.123 1.067,3.657 2.738,4.568 0.819,0.447 1.745,0.755 2.651,0.873 2.734,0.356 5.38,-1.424 6.096,-3.971 0.669,-2.388 -0.483,-4.458 -3.403,-6.309 8.345,-16.957 13.344,-27.946 22.286,-45.292 4.457,18.322 8.852,26.964 13.277,45.155 -0.796,0.502 -1.301,0.774 -1.772,1.124 -1.528,1.137 -2.558,2.758 -2.583,5.232 -0.026,2.485 0.973,4.171 2.509,5.28 2.03,1.465 4.138,1.472 6.192,0.094 1.562,-1.049 2.601,-2.732 2.643,-5.18 0.045,-2.549 -1.021,-4.249 -2.602,-5.431 -0.436,-0.327 -0.908,-0.566 -1.233,-0.764 4.033,-17.828 7.953,-27.351 12.931,-44.969 8.691,18.507 13.347,28.258 22.15,44.535 -0.656,0.476 -1.617,0.992 -2.376,1.757 -2.127,2.142 -1.958,5.406 0.334,7.33 1.758,1.474 3.736,1.735 5.824,1.087 2.308,-0.717 3.854,-2.632 3.975,-4.877 0.116,-2.167 -0.974,-3.845 -3.253,-5.002 -0.218,-0.11 -0.444,-0.199 -0.55,-0.248 2.089,-20.94 2.102,-27.468 3.566,-47.125 11.973,17.44 17.182,23.991 30.537,39.916 -1.618,2.805 -1.832,4.541 -0.661,6.452 1.212,1.981 3.71,2.44 5.641,1.035 1.548,-1.127 2.347,-3.348 1.919,-5.332 -0.516,-2.4 -2.41,-3.549 -5.41,-3.152 -4.337,-17.116 -7.794,-34.571 -9.757,-52.77 -44.236,8.285 -88.4,8.422 -132.519,0.269"
       style="fill:#ffffff;fill-opacity:1;fill-rule:nonzero;stroke:none"
       id="path134" />
    <path
       d="m 355.327,421.366 c -22.019,-0.2 -43.042,-2.09 -63.955,-6.033 -0.507,-0.095 -1.016,-0.186 -1.527,-0.218 -1.574,-0.1 -2.741,1.049 -2.921,2.841 -0.17,1.696 0.796,3.406 2.316,3.748 2.32,0.522 4.658,0.904 6.994,1.296 22.79,3.825 45.667,5.498 68.629,4.956 19.568,-0.463 39.044,-2.548 58.427,-6.205 0.642,-0.121 1.324,-0.382 1.867,-0.839 1.018,-0.859 1.424,-2.226 0.971,-3.765 -0.524,-1.782 -1.626,-2.368 -2.994,-2.134 -3.705,0.635 -7.406,1.308 -11.114,1.906 -19.131,3.083 -38.336,4.468 -56.693,4.447"
       style="fill:#ffffff;fill-opacity:1;fill-rule:nonzero;stroke:none"
       id="path136" />
    <path
       d="m 197.697,225.463 14.918,-11.947 -4.769,-39.841 37.838,13.356 14.917,-11.947 -50.378,-62.904 -13.749,11.012 32.89,41.067 -39.222,-12.691 -0.359,0.288 3.779,40.633 -32.674,-40.797 -13.569,10.867 50.378,62.904"
       style="fill:#ffffff;fill-opacity:1;fill-rule:nonzero;stroke:none"
       id="path138" />
    <path
       d="m 272.946,171.215 58.501,-16.524 -4.288,-15.179 -41.548,11.735 -4.444,-15.733 36.563,-10.327 -4.288,-15.18 -36.563,10.328 -4.6,-16.287 42.103,-11.893 -4.287,-15.178 -59.055,16.68 21.906,77.558"
       style="fill:#ffffff;fill-opacity:1;fill-rule:nonzero;stroke:none"
       id="path140" />
    <path
       d="m 360.984,139.071 4.852,-48.344 13.633,1.369 c 14.434,1.448 23.195,12.163 21.768,26.368 l -0.022,0.229 c -1.426,14.205 -12.164,23.195 -26.598,21.746 z m -19.24,14.153 31.275,3.138 c 25.203,2.53 44.351,-13.021 46.617,-35.589 l 0.023,-0.229 C 421.924,97.977 406.27,78.701 381.067,76.172 l -31.274,-3.139 -8.049,80.191"
       style="fill:#ffffff;fill-opacity:1;fill-rule:nonzero;stroke:none"
       id="path142" />
    <path
       d="m 426.714,168.022 16.35,6.859 31.176,-74.319 -16.35,-6.858 -31.176,74.318"
       style="fill:#ffffff;fill-opacity:1;fill-rule:nonzero;stroke:none"
       id="path144" />
    <path
       d="m 524.41,173.44 -24.951,13.23 8.496,-26.933 z m -44.684,24.514 12.563,10.461 78.477,-40.268 -14.244,-11.862 -17.228,9.175 -26.186,-21.807 5.904,-18.603 -13.889,-11.567 -25.397,84.471"
       style="fill:#ffffff;fill-opacity:1;fill-rule:nonzero;stroke:none"
       id="path146" />
    <path
       d="m 200.967,564.546 -21.784,-15.253 -10.169,14.523 59.318,41.533 10.168,-14.523 -21.784,-15.252 39.958,-57.069 -15.75,-11.027 -39.957,57.068"
       style="fill:#ffffff;fill-opacity:1;fill-rule:nonzero;stroke:none"
       id="path148" />
    <path
       d="m 284.727,607.503 10.764,-51.576 14.543,3.036 c 15.399,3.214 23.62,15.77 20.457,30.925 l -0.051,0.244 c -3.163,15.155 -15.77,23.62 -31.169,20.406 z m -22.367,13.06 33.365,6.963 c 26.888,5.611 49.316,-8.966 54.341,-33.043 l 0.051,-0.244 c 5.025,-24.077 -9.65,-46.653 -36.537,-52.265 l -33.365,-6.962 -17.855,85.551"
       style="fill:#ffffff;fill-opacity:1;fill-rule:nonzero;stroke:none"
       id="path150" />
    <path
       d="m 380.752,634.799 65.238,-13.108 -3.444,-17.135 -46.388,9.32 -3.664,-18.236 40.88,-8.215 -3.443,-17.135 -40.881,8.214 -6.665,-33.17 -18.849,3.788 17.216,85.677"
       style="fill:#ffffff;fill-opacity:1;fill-rule:nonzero;stroke:none"
       id="path152" />
    <path
       d="m 452.46,572.982 0.139,0.208 c 13.881,20.605 40.782,27.02 63.044,12.024 13.668,-9.207 18.78,-19.274 21.045,-30.434 l -18.029,-4.866 c -2.173,8.841 -5.776,15.783 -13.024,20.666 -12.219,8.231 -27.855,4.012 -36.225,-8.413 l -0.14,-0.207 c -8.37,-12.426 -6.751,-28.57 5.675,-36.939 8.284,-5.581 15.589,-5.685 24.772,-4.344 l 3.242,-17.087 c -12.826,-2.951 -24.458,-2.341 -38.436,7.076 -21.331,14.368 -26.083,41.504 -12.063,62.316"
       style="fill:#ffffff;fill-opacity:1;fill-rule:nonzero;stroke:none"
       id="path154" />
    <path
       d="m 299.777,232.739 h -13.09 v -5.187 h 12.025 v -4.364 h -12.025 v -6.391 h 13.674 v -4.363 h -18.725 v 24.668 h 18.141 v -4.363"
       style="fill:#ffffff;fill-opacity:1;fill-rule:nonzero;stroke:none"
       id="path156" />
    <path
       d="m 308.229,220.027 c 0.035,-1.374 0.722,-3.985 5.223,-3.985 2.439,0 5.153,0.584 5.153,3.195 0,1.924 -1.855,2.439 -4.466,3.058 l -2.646,0.618 c -3.985,0.928 -7.833,1.821 -7.833,7.25 0,2.748 1.478,7.592 9.482,7.592 7.559,0 9.587,-4.947 9.62,-7.971 h -4.946 c -0.138,1.1 -0.55,3.711 -5.051,3.711 -1.958,0 -4.295,-0.721 -4.295,-2.955 0,-1.924 1.581,-2.336 2.611,-2.576 l 6.013,-1.478 c 3.367,-0.824 6.459,-2.198 6.459,-6.631 0,-7.421 -7.559,-8.074 -9.723,-8.074 -9.002,0 -10.548,5.189 -10.548,8.246 h 4.947"
       style="fill:#ffffff;fill-opacity:1;fill-rule:nonzero;stroke:none"
       id="path158" />
    <path
       d="m 337.262,212.434 h -5.153 v 20.305 h -7.456 v 4.363 h 20.065 v -4.363 h -7.456 v -20.305"
       style="fill:#ffffff;fill-opacity:1;fill-rule:nonzero;stroke:none"
       id="path160" />
    <path
       d="m 344.616,217.45 h 5.154 v -5.016 h -5.154 z"
       style="fill:#ffffff;fill-opacity:1;fill-rule:nonzero;stroke:none"
       id="path162" />
    <path
       d="m 361.315,228.204 c 0,7.937 5.806,8.624 7.97,8.624 4.673,0 8.383,-2.749 8.383,-7.696 0,-4.191 -2.714,-6.322 -5.085,-7.937 -3.229,-2.267 -4.913,-3.367 -5.462,-4.501 h 10.582 v -4.26 h -16.664 c 0.172,2.852 0.379,5.841 5.669,9.689 4.398,3.195 6.15,4.432 6.15,7.181 0,1.614 -1.031,3.47 -3.366,3.47 -3.367,0 -3.471,-2.783 -3.505,-4.57 h -4.672"
       style="fill:#ffffff;fill-opacity:1;fill-rule:nonzero;stroke:none"
       id="path164" />
    <path
       d="m 388.801,215.629 c 2.748,0 3.504,2.406 3.504,8.692 0,6.288 -0.756,8.659 -3.504,8.659 -2.749,0 -3.505,-2.371 -3.505,-8.659 0,-6.286 0.756,-8.692 3.505,-8.692 z m 0,21.199 c 5.737,0 8.452,-3.951 8.452,-12.507 0,-8.554 -2.715,-12.54 -8.452,-12.54 -5.738,0 -8.453,3.986 -8.453,12.54 0,8.556 2.715,12.507 8.453,12.507"
       style="fill:#ffffff;fill-opacity:1;fill-rule:nonzero;stroke:none"
       id="path166" />
    <path
       d="m 398.834,232.602 h 0.687 c 4.638,0 5.875,2.405 5.978,4.226 h 3.952 v -24.394 h -4.81 v 16.801 h -5.807 v 3.367"
       style="fill:#ffffff;fill-opacity:1;fill-rule:nonzero;stroke:none"
       id="path168" />
    <path
       d="m 423.813,224.288 c 1.683,0 3.538,1.202 3.538,4.088 0,2.783 -1.202,4.501 -3.676,4.501 -1.237,0 -3.47,-0.618 -3.47,-4.123 0,-3.676 1.787,-4.466 3.608,-4.466 z m -3.161,-6.219 v -0.034 c 0.275,-1.684 1.34,-2.406 2.817,-2.406 1.993,0 3.985,1.684 4.02,6.804 l -0.068,0.068 c -1.1,-1.649 -2.99,-2.061 -4.639,-2.061 -4.673,0 -7.387,3.538 -7.387,7.627 0,5.978 3.539,8.761 8.315,8.761 8.451,0 8.589,-9.105 8.589,-12.54 0,-9.449 -4.466,-12.507 -8.864,-12.507 -4.158,0 -7.146,2.405 -7.559,6.288 h 4.776"
       style="fill:#ffffff;fill-opacity:1;fill-rule:nonzero;stroke:none"
       id="path170" />
  </g>
</svg>
